<svg version="1.1" xmlns="http://www.w3.org/2000/svg" xmlns:xlink="http://www.w3.org/1999/xlink" width="556" height="145"><defs/><g><g transform="translate(-134,-142) scale(1,1)"><rect fill="#C0C0C0" stroke="none" x="151" y="159" width="80" height="72" opacity="0.2"/></g><g transform="translate(-134,-142) scale(1,1)"><rect fill="#ffffff" stroke="none" x="144" y="152" width="80" height="72"/></g><g transform="translate(-134,-142) scale(1,1)"><path fill="none" stroke="#000000" d="M 144 152 L 224 152 L 224 224 L 144 224 L 144 152 Z Z" stroke-miterlimit="10"/></g><g transform="translate(-134,-142) scale(1,1)"><path fill="none" stroke="#000000" d="M 144 177 L 224 177" stroke-miterlimit="10"/></g><g transform="translate(-134,-142) scale(1,1)"><path fill="none" stroke="#000000" d="M 144 215 L 224 215" stroke-miterlimit="10"/></g><g transform="translate(-134,-142) scale(1,1)"><g><path fill="none" stroke="none"/><text fill="#000000" stroke="none" font-family="Arial" font-size="13px" font-style="normal" font-weight="bold" text-decoration="none" x="163.5" y="171.5">Person</text></g></g><g transform="translate(-134,-142) scale(1,1)"><g><path fill="none" stroke="none"/><text fill="#000000" stroke="none" font-family="Arial" font-size="13px" font-style="normal" font-weight="normal" text-decoration="none" x="149" y="194.5">+name</text></g></g><g transform="translate(-134,-142) scale(1,1)"><g><path fill="none" stroke="none"/><text fill="#000000" stroke="none" font-family="Arial" font-size="13px" font-style="normal" font-weight="normal" text-decoration="none" x="149" y="209.5">+email</text></g></g><g transform="translate(-134,-142) scale(1,1)"><rect fill="#C0C0C0" stroke="none" x="383" y="167" width="96" height="57" opacity="0.2"/></g><g transform="translate(-134,-142) scale(1,1)"><rect fill="#ffffff" stroke="none" x="376" y="160" width="96" height="57"/></g><g transform="translate(-134,-142) scale(1,1)"><path fill="none" stroke="#000000" d="M 376 160 L 472 160 L 472 217 L 376 217 L 376 160 Z Z" stroke-miterlimit="10"/></g><g transform="translate(-134,-142) scale(1,1)"><path fill="none" stroke="#000000" d="M 376 185 L 472 185" stroke-miterlimit="10"/></g><g transform="translate(-134,-142) scale(1,1)"><path fill="none" stroke="#000000" d="M 376 208 L 472 208" stroke-miterlimit="10"/></g><g transform="translate(-134,-142) scale(1,1)"><g><path fill="none" stroke="none"/><text fill="#000000" stroke="none" font-family="Arial" font-size="13px" font-style="normal" font-weight="bold" text-decoration="none" x="389.5" y="179.5">Reservation</text></g></g><g transform="translate(-134,-142) scale(1,1)"><g><path fill="none" stroke="none"/><text fill="#000000" stroke="none" font-family="Arial" font-size="13px" font-style="normal" font-weight="normal" text-decoration="none" x="381" y="202.5">+dateRange</text></g></g><g transform="translate(-134,-142) scale(1,1)"><rect fill="#C0C0C0" stroke="none" x="607" y="159" width="80" height="72" opacity="0.2"/></g><g transform="translate(-134,-142) scale(1,1)"><rect fill="#ffffff" stroke="none" x="600" y="152" width="80" height="72"/></g><g transform="translate(-134,-142) scale(1,1)"><path fill="none" stroke="#000000" d="M 600 152 L 680 152 L 680 224 L 600 224 L 600 152 Z Z" stroke-miterlimit="10"/></g><g transform="translate(-134,-142) scale(1,1)"><path fill="none" stroke="#000000" d="M 600 177 L 680 177" stroke-miterlimit="10"/></g><g transform="translate(-134,-142) scale(1,1)"><path fill="none" stroke="#000000" d="M 600 215 L 680 215" stroke-miterlimit="10"/></g><g transform="translate(-134,-142) scale(1,1)"><g><path fill="none" stroke="none"/><text fill="#000000" stroke="none" font-family="Arial" font-size="13px" font-style="normal" font-weight="bold" text-decoration="none" x="623" y="171.5">Room</text></g></g><g transform="translate(-134,-142) scale(1,1)"><g><path fill="none" stroke="none"/><text fill="#000000" stroke="none" font-family="Arial" font-size="13px" font-style="normal" font-weight="normal" text-decoration="none" x="605" y="194.5">+name</text></g></g><g transform="translate(-134,-142) scale(1,1)"><g><path fill="none" stroke="none"/><text fill="#000000" stroke="none" font-family="Arial" font-size="13px" font-style="normal" font-weight="normal" text-decoration="none" x="605" y="209.5">+capacity</text></g></g><g transform="translate(-134,-142) scale(1,1)"><path fill="none" stroke="#000000" d="M 225 188 L 375 188" stroke-miterlimit="10"/></g><g transform="translate(-134,-142) scale(1,1)"><g><path fill="none" stroke="none"/><text fill="#000000" stroke="none" font-family="Arial" font-size="13px" font-style="normal" font-weight="normal" text-decoration="none" x="277" y="180">+makes</text></g></g><g transform="translate(-134,-142) scale(1,1)"><g><path fill="none" stroke="none"/><text fill="#000000" stroke="none" font-family="Arial" font-size="13px" font-style="normal" font-weight="normal" text-decoration="none" x="229" y="180">+owner</text></g></g><g transform="translate(-134,-142) scale(1,1)"><g><path fill="none" stroke="none"/><text fill="#000000" stroke="none" font-family="Arial" font-size="13px" font-style="normal" font-weight="normal" text-decoration="none" x="232" y="206">1</text></g></g><g transform="translate(-134,-142) scale(1,1)"><g><path fill="none" stroke="none"/><text fill="#000000" stroke="none" font-family="Arial" font-size="13px" font-style="normal" font-weight="normal" text-decoration="none" x="343" y="207">0..*</text></g></g><g transform="translate(-134,-142) scale(1,1)"><path fill="none" stroke="#000000" d="M 473 188 L 599 188" stroke-miterlimit="10"/></g><g transform="translate(-134,-142) scale(1,1)"><g><path fill="none" stroke="none"/><text fill="#000000" stroke="none" font-family="Arial" font-size="13px" font-style="normal" font-weight="normal" text-decoration="none" x="497" y="180">+isBookedBy</text></g></g><g transform="translate(-134,-142) scale(1,1)"><g><path fill="none" stroke="none"/><text fill="#000000" stroke="none" font-family="Arial" font-size="13px" font-style="normal" font-weight="normal" text-decoration="none" x="484" y="207">0..*</text></g></g><g transform="translate(-134,-142) scale(1,1)"><g><path fill="none" stroke="none"/><text fill="#000000" stroke="none" font-family="Arial" font-size="13px" font-style="normal" font-weight="normal" text-decoration="none" x="584" y="207">1</text></g></g><g transform="translate(-134,-142) scale(1,1)"><path fill="none" stroke="#000000" d="M 424 218 L 424 256 L 184 256 L 184 225" stroke-miterlimit="10"/></g><g transform="translate(-134,-142) scale(1,1)"><path fill="none" stroke="#000000" d="M 188.209517756016 235.16267485762415 L 184 225 L 179.790482243984 235.16267485762415" stroke-miterlimit="10"/></g><g transform="translate(-134,-142) scale(1,1)"><g><path fill="none" stroke="none"/><text fill="#000000" stroke="none" font-family="Arial" font-size="13px" font-style="normal" font-weight="normal" text-decoration="none" x="275" y="278">+involves</text></g></g><g transform="translate(-134,-142) scale(1,1)"><g><path fill="none" stroke="none"/><text fill="#000000" stroke="none" font-family="Arial" font-size="13px" font-style="normal" font-weight="normal" text-decoration="none" x="399" y="233">0..*</text></g></g><g transform="translate(-134,-142) scale(1,1)"><g><path fill="none" stroke="none"/><text fill="#000000" stroke="none" font-family="Arial" font-size="13px" font-style="normal" font-weight="normal" text-decoration="none" x="190" y="241">0..*</text></g></g></g></svg>