<?xml version="1.0" encoding="UTF-8" standalone="no"?><svg xmlns="http://www.w3.org/2000/svg" xmlns:xlink="http://www.w3.org/1999/xlink" contentScriptType="application/ecmascript" contentStyleType="text/css" height="452px" preserveAspectRatio="none" style="width:440px;height:452px;" version="1.1" viewBox="0 0 440 452" width="440px" zoomAndPan="magnify"><defs><filter height="300%" id="f183s3p7wiyeb7" width="300%" x="-1" y="-1"><feGaussianBlur result="blurOut" stdDeviation="2.0"/><feColorMatrix in="blurOut" result="blurOut2" type="matrix" values="0 0 0 0 0 0 0 0 0 0 0 0 0 0 0 0 0 0 .4 0"/><feOffset dx="4.0" dy="4.0" in="blurOut2" result="blurOut3"/><feBlend in="SourceGraphic" in2="blurOut3" mode="normal"/></filter></defs><g><text fill="#000000" font-family="sans-serif" font-size="18" lengthAdjust="spacingAndGlyphs" textLength="126" x="160.5" y="17.4023">Domain Model</text><!--class ModuleRun--><rect fill="#FEFECE" filter="url(#f183s3p7wiyeb7)" height="24.1328" id="ModuleRun" style="stroke: #A80036; stroke-width: 1.5;" width="70" x="188.5" y="231.1992"/><text fill="#000000" font-family="sans-serif" font-size="12" lengthAdjust="spacingAndGlyphs" textLength="64" x="191.5" y="247.8008">ModuleRun</text><!--class Enrollment--><rect fill="#FEFECE" filter="url(#f183s3p7wiyeb7)" height="24.1328" id="Enrollment" style="stroke: #A80036; stroke-width: 1.5;" width="67" x="82" y="332.1992"/><text fill="#000000" font-family="sans-serif" font-size="12" lengthAdjust="spacingAndGlyphs" textLength="61" x="85" y="348.8008">Enrollment</text><!--class Module--><rect fill="#FEFECE" filter="url(#f183s3p7wiyeb7)" height="24.1328" id="Module" style="stroke: #A80036; stroke-width: 1.5;" width="48" x="242.5" y="130.1992"/><text fill="#000000" font-family="sans-serif" font-size="12" lengthAdjust="spacingAndGlyphs" textLength="42" x="245.5" y="146.8008">Module</text><!--class Professor--><rect fill="#FEFECE" filter="url(#f183s3p7wiyeb7)" height="24.1328" id="Professor" style="stroke: #A80036; stroke-width: 1.5;" width="60" x="124.5" y="29.1992"/><text fill="#000000" font-family="sans-serif" font-size="12" lengthAdjust="spacingAndGlyphs" textLength="54" x="127.5" y="45.8008">Professor</text><!--class Student--><rect fill="#FEFECE" filter="url(#f183s3p7wiyeb7)" height="24.1328" id="Student" style="stroke: #A80036; stroke-width: 1.5;" width="49" x="29" y="130.1992"/><text fill="#000000" font-family="sans-serif" font-size="12" lengthAdjust="spacingAndGlyphs" textLength="43" x="32" y="146.8008">Student</text><!--class StudentStatus--><rect fill="#FEFECE" filter="url(#f183s3p7wiyeb7)" height="24.1328" id="StudentStatus" style="stroke: #A80036; stroke-width: 1.5;" width="83" x="6" y="29.1992"/><text fill="#000000" font-family="sans-serif" font-size="12" lengthAdjust="spacingAndGlyphs" textLength="77" x="9" y="45.8008">StudentStatus</text><!--class Evaluation--><rect fill="#FEFECE" filter="url(#f183s3p7wiyeb7)" height="24.1328" id="Evaluation" style="stroke: #A80036; stroke-width: 1.5;" width="64" x="83.5" y="417.1992"/><text fill="#000000" font-family="sans-serif" font-size="12" lengthAdjust="spacingAndGlyphs" textLength="58" x="86.5" y="433.8008">Evaluation</text><!--class DegreeProgram--><rect fill="#FEFECE" filter="url(#f183s3p7wiyeb7)" height="24.1328" id="DegreeProgram" style="stroke: #A80036; stroke-width: 1.5;" width="97" x="220" y="29.1992"/><text fill="#000000" font-family="sans-serif" font-size="12" lengthAdjust="spacingAndGlyphs" textLength="91" x="223" y="45.8008">DegreeProgram</text><!--class Semester--><rect fill="#FEFECE" filter="url(#f183s3p7wiyeb7)" height="24.1328" id="Semester" style="stroke: #A80036; stroke-width: 1.5;" width="59" x="326" y="130.1992"/><text fill="#000000" font-family="sans-serif" font-size="12" lengthAdjust="spacingAndGlyphs" textLength="53" x="329" y="146.8008">Semester</text><!--class ModuleType--><rect fill="#FEFECE" filter="url(#f183s3p7wiyeb7)" height="24.1328" id="ModuleType" style="stroke: #A80036; stroke-width: 1.5;" width="77" x="352" y="29.1992"/><text fill="#000000" font-family="sans-serif" font-size="12" lengthAdjust="spacingAndGlyphs" textLength="71" x="355" y="45.8008">ModuleType</text><!--link ModuleRun to Enrollment--><path d="M206.402,259.189 C184.7718,279.4172 147.999,313.8066 128.5139,332.0288 " fill="none" id="ModuleRun-Enrollment" style="stroke: #A80036; stroke-width: 1.0;"/><polygon fill="#A80036" points="210.2571,255.5838,200.9515,258.8097,206.6052,258.999,206.4158,264.6527,210.2571,255.5838" style="stroke: #A80036; stroke-width: 1.0;"/><text fill="#000000" font-family="sans-serif" font-size="13" lengthAdjust="spacingAndGlyphs" textLength="67" x="177.5" y="298.7676">belongs to</text><text fill="#000000" font-family="sans-serif" font-size="13" lengthAdjust="spacingAndGlyphs" textLength="8" x="195.4677" y="276.0167">1</text><text fill="#000000" font-family="sans-serif" font-size="13" lengthAdjust="spacingAndGlyphs" textLength="22" x="138.4196" y="321.5198">0..*</text><!--link Module to ModuleRun--><path d="M261.2274,154.5838 C253.5779,172.5511 239.3764,205.9082 230.7477,226.1755 " fill="none" id="Module-ModuleRun" style="stroke: #A80036; stroke-width: 1.0;"/><polygon fill="#A80036" points="228.6815,231.0288,235.8875,224.3151,230.6402,226.4284,228.5268,221.1812,228.6815,231.0288" style="stroke: #A80036; stroke-width: 1.0;"/><text fill="#000000" font-family="sans-serif" font-size="13" lengthAdjust="spacingAndGlyphs" textLength="24" x="249.5" y="197.7676">Has</text><text fill="#000000" font-family="sans-serif" font-size="13" lengthAdjust="spacingAndGlyphs" textLength="8" x="249.5763" y="175.0167">1</text><text fill="#000000" font-family="sans-serif" font-size="13" lengthAdjust="spacingAndGlyphs" textLength="22" x="235.3564" y="220.5198">0..*</text><!--link Professor to ModuleRun--><path d="M154.8355,53.4371 C155.7419,74.5715 159.0954,119.0255 171.5,154.1992 C181.102,181.426 199.253,209.682 211.3647,226.8572 " fill="none" id="Professor-ModuleRun" style="stroke: #A80036; stroke-width: 1.0;"/><polygon fill="#A80036" points="214.305,230.9777,212.3334,221.3282,211.4008,226.9077,205.8213,225.975,214.305,230.9777" style="stroke: #A80036; stroke-width: 1.0;"/><text fill="#000000" font-family="sans-serif" font-size="13" lengthAdjust="spacingAndGlyphs" textLength="51" x="172.5" y="147.2676">Teaches</text><text fill="#000000" font-family="sans-serif" font-size="13" lengthAdjust="spacingAndGlyphs" textLength="8" x="145.3926" y="73.8123">1</text><text fill="#000000" font-family="sans-serif" font-size="13" lengthAdjust="spacingAndGlyphs" textLength="22" x="183.9746" y="220.4476">0..*</text><!--link Student to Enrollment--><path d="M57.1927,154.2303 C67.7212,188.5329 97.9193,286.9201 110.2051,326.9482 " fill="none" id="Student-Enrollment" style="stroke: #A80036; stroke-width: 1.0;"/><polygon fill="#A80036" points="111.7483,331.9758,112.9314,322.1983,110.2812,327.1959,105.2836,324.5457,111.7483,331.9758" style="stroke: #A80036; stroke-width: 1.0;"/><text fill="#000000" font-family="sans-serif" font-size="13" lengthAdjust="spacingAndGlyphs" textLength="41" x="89.5" y="248.2676">makes</text><text fill="#000000" font-family="sans-serif" font-size="13" lengthAdjust="spacingAndGlyphs" textLength="8" x="49.0659" y="174.8919">1</text><text fill="#000000" font-family="sans-serif" font-size="13" lengthAdjust="spacingAndGlyphs" textLength="22" x="83.6632" y="321.4449">0..*</text><!--link StudentStatus to Student--><path d="M48.2357,53.5838 C49.2986,71.475 51.2679,104.6258 52.4733,124.9171 " fill="none" id="StudentStatus-Student" style="stroke: #A80036; stroke-width: 1.0;"/><polygon fill="#A80036" points="52.777,130.0288,56.2361,120.8074,52.4804,125.0376,48.2502,121.2819,52.777,130.0288" style="stroke: #A80036; stroke-width: 1.0;"/><text fill="#000000" font-family="sans-serif" font-size="13" lengthAdjust="spacingAndGlyphs" textLength="22" x="52.5" y="96.7676">has</text><text fill="#000000" font-family="sans-serif" font-size="13" lengthAdjust="spacingAndGlyphs" textLength="8" x="38.9504" y="74.0167">1</text><text fill="#000000" font-family="sans-serif" font-size="13" lengthAdjust="spacingAndGlyphs" textLength="22" x="25.9413" y="119.5198">0..*</text><!--link Enrollment to Evaluation--><path d="M115.5,356.3776 C115.5,370.895 115.5,395.2615 115.5,411.7712 " fill="none" id="Enrollment-Evaluation" style="stroke: #A80036; stroke-width: 1.0;"/><polygon fill="#A80036" points="115.5,417.0434,119.5,408.0434,115.5,412.0434,111.5,408.0434,115.5,417.0434" style="stroke: #A80036; stroke-width: 1.0;"/><text fill="#000000" font-family="sans-serif" font-size="13" lengthAdjust="spacingAndGlyphs" textLength="22" x="88.9625" y="377.1">0..*</text><text fill="#000000" font-family="sans-serif" font-size="13" lengthAdjust="spacingAndGlyphs" textLength="8" x="105.85" y="406.5404">1</text><!--link DegreeProgram to Module--><path d="M268.1529,58.7256 C267.7491,79.1195 267.0929,112.2603 266.741,130.0288 " fill="none" id="DegreeProgram-Module" style="stroke: #A80036; stroke-width: 1.0;"/><polygon fill="#A80036" points="268.2548,53.5838,264.0771,62.5027,268.1557,58.5828,272.0756,62.6614,268.2548,53.5838" style="stroke: #A80036; stroke-width: 1.0;"/><text fill="#000000" font-family="sans-serif" font-size="13" lengthAdjust="spacingAndGlyphs" textLength="8" x="258.5833" y="74.0167">1</text><text fill="#000000" font-family="sans-serif" font-size="13" lengthAdjust="spacingAndGlyphs" textLength="22" x="271.3779" y="119.5198">0..*</text><!--link Semester to ModuleRun--><path d="M337.2206,157.4889 C322.6024,169.5901 301.484,186.7918 282.5,201.1992 C268.7786,211.6127 252.8463,222.909 240.9991,231.1608 " fill="none" id="Semester-ModuleRun" style="stroke: #A80036; stroke-width: 1.0;"/><polygon fill="#A80036" points="341.1642,154.2176,331.6835,156.8851,337.3159,157.4099,336.7911,163.0424,341.1642,154.2176" style="stroke: #A80036; stroke-width: 1.0;"/><text fill="#000000" font-family="sans-serif" font-size="13" lengthAdjust="spacingAndGlyphs" textLength="8" x="325.6007" y="174.874">1</text><text fill="#000000" font-family="sans-serif" font-size="13" lengthAdjust="spacingAndGlyphs" textLength="22" x="253.4675" y="220.22">0..*</text><!--link Professor to Module--><path d="M171.9528,56.9379 C194.3458,77.1316 232.7135,111.731 253.0041,130.0288 " fill="none" id="Professor-Module" style="stroke: #A80036; stroke-width: 1.0;"/><polygon fill="#A80036" points="168.2334,53.5838,172.2382,62.5817,171.9465,56.9324,177.5958,56.6407,168.2334,53.5838" style="stroke: #A80036; stroke-width: 1.0;"/><text fill="#000000" font-family="sans-serif" font-size="13" lengthAdjust="spacingAndGlyphs" textLength="8" x="164.0659" y="74.0167">1</text><text fill="#000000" font-family="sans-serif" font-size="13" lengthAdjust="spacingAndGlyphs" textLength="22" x="220.8995" y="119.5198">0..*</text><!--link ModuleType to Module--><path d="M371.1773,56.9379 C346.385,77.1316 303.9065,111.731 281.4419,130.0288 " fill="none" id="ModuleType-Module" style="stroke: #A80036; stroke-width: 1.0;"/><polygon fill="#A80036" points="375.2952,53.5838,365.7909,56.1662,371.4184,56.7415,370.8431,62.369,375.2952,53.5838" style="stroke: #A80036; stroke-width: 1.0;"/><text fill="#000000" font-family="sans-serif" font-size="13" lengthAdjust="spacingAndGlyphs" textLength="8" x="359.7333" y="74.0167">1</text><text fill="#000000" font-family="sans-serif" font-size="13" lengthAdjust="spacingAndGlyphs" textLength="22" x="292.1429" y="119.5198">0..*</text><!--
@startuml

title Domain Model


ModuleRun "1" <- - "0..*" Enrollment : belongs to
Module "1" - -> "0..*" ModuleRun : Has
Professor "1" - -> "0..*" ModuleRun : Teaches
Student "1" - - -> "0..*" Enrollment: makes
StudentStatus "1" - -> "0..*" Student : has
Enrollment "0..*" - -> "1" Evaluation
DegreeProgram "1" <- - "0..*" Module
Semester "1" <- - "0..*" ModuleRun
Professor "1" <- - "0..*" Module
ModuleType "1" <- - "0..*" Module
hide circle
hide members
@enduml

PlantUML version 1.2018.09(Fri Jul 27 18:58:18 CEST 2018)
(GPL source distribution)
Java Runtime: OpenJDK Runtime Environment
JVM: OpenJDK 64-Bit Server VM
Java Version: 1.8.0_152-release-1248-b8
Operating System: Mac OS X
OS Version: 10.14
Default Encoding: UTF-8
Language: de
Country: CH
--></g></svg>