<?xml version="1.0" encoding="UTF-8" standalone="no"?><svg xmlns="http://www.w3.org/2000/svg" xmlns:xlink="http://www.w3.org/1999/xlink" contentScriptType="application/ecmascript" contentStyleType="text/css" height="531px" preserveAspectRatio="none" style="width:845px;height:531px;" version="1.1" viewBox="0 0 845 531" width="845px" zoomAndPan="magnify"><defs><filter height="300%" id="fwldmrx3lcrxz" width="300%" x="-1" y="-1"><feGaussianBlur result="blurOut" stdDeviation="2.0"/><feColorMatrix in="blurOut" result="blurOut2" type="matrix" values="0 0 0 0 0 0 0 0 0 0 0 0 0 0 0 0 0 0 .4 0"/><feOffset dx="4.0" dy="4.0" in="blurOut2" result="blurOut3"/><feBlend in="SourceGraphic" in2="blurOut3" mode="normal"/></filter></defs><g><text fill="#000000" font-family="sans-serif" font-size="14" font-weight="bold" lengthAdjust="spacingAndGlyphs" textLength="173" x="337" y="23.5352">Enroll to a module (run)</text><line style="stroke: #A80036; stroke-width: 1.0; stroke-dasharray: 5.0,5.0;" x1="37" x2="37" y1="116.9766" y2="444.082"/><line style="stroke: #A80036; stroke-width: 1.0; stroke-dasharray: 5.0,5.0;" x1="515.5" x2="515.5" y1="116.9766" y2="444.082"/><line style="stroke: #A80036; stroke-width: 1.0; stroke-dasharray: 5.0,5.0;" x1="799" x2="799" y1="116.9766" y2="444.082"/><text fill="#000000" font-family="sans-serif" font-size="14" lengthAdjust="spacingAndGlyphs" textLength="53" x="8" y="114.0234">Student</text><ellipse cx="37.5" cy="43.4883" fill="#FEFECE" filter="url(#fwldmrx3lcrxz)" rx="8" ry="8" style="stroke: #A80036; stroke-width: 2.0;"/><path d="M37.5,51.4883 L37.5,78.4883 M24.5,59.4883 L50.5,59.4883 M37.5,78.4883 L24.5,93.4883 M37.5,78.4883 L50.5,93.4883 " fill="none" filter="url(#fwldmrx3lcrxz)" style="stroke: #A80036; stroke-width: 2.0;"/><text fill="#000000" font-family="sans-serif" font-size="14" lengthAdjust="spacingAndGlyphs" textLength="53" x="8" y="456.6172">Student</text><ellipse cx="37.5" cy="469.5703" fill="#FEFECE" filter="url(#fwldmrx3lcrxz)" rx="8" ry="8" style="stroke: #A80036; stroke-width: 2.0;"/><path d="M37.5,477.5703 L37.5,504.5703 M24.5,485.5703 L50.5,485.5703 M37.5,504.5703 L24.5,519.5703 M37.5,504.5703 L50.5,519.5703 " fill="none" filter="url(#fwldmrx3lcrxz)" style="stroke: #A80036; stroke-width: 2.0;"/><text fill="#000000" font-family="sans-serif" font-size="14" lengthAdjust="spacingAndGlyphs" textLength="70" x="477.5" y="114.0234">Controller</text><path d="M497.5,64.4883 C497.5,54.4883 515.5,54.4883 515.5,54.4883 C515.5,54.4883 533.5,54.4883 533.5,64.4883 L533.5,90.4883 C533.5,100.4883 515.5,100.4883 515.5,100.4883 C515.5,100.4883 497.5,100.4883 497.5,90.4883 L497.5,64.4883 " fill="#FEFECE" filter="url(#fwldmrx3lcrxz)" style="stroke: #000000; stroke-width: 1.5;"/><path d="M497.5,64.4883 C497.5,74.4883 515.5,74.4883 515.5,74.4883 C515.5,74.4883 533.5,74.4883 533.5,64.4883 " fill="none" style="stroke: #000000; stroke-width: 1.5;"/><text fill="#000000" font-family="sans-serif" font-size="14" lengthAdjust="spacingAndGlyphs" textLength="70" x="477.5" y="456.6172">Controller</text><path d="M497.5,469.5703 C497.5,459.5703 515.5,459.5703 515.5,459.5703 C515.5,459.5703 533.5,459.5703 533.5,469.5703 L533.5,495.5703 C533.5,505.5703 515.5,505.5703 515.5,505.5703 C515.5,505.5703 497.5,505.5703 497.5,495.5703 L497.5,469.5703 " fill="#FEFECE" filter="url(#fwldmrx3lcrxz)" style="stroke: #000000; stroke-width: 1.5;"/><path d="M497.5,469.5703 C497.5,479.5703 515.5,479.5703 515.5,479.5703 C515.5,479.5703 533.5,479.5703 533.5,469.5703 " fill="none" style="stroke: #000000; stroke-width: 1.5;"/><text fill="#000000" font-family="sans-serif" font-size="14" lengthAdjust="spacingAndGlyphs" textLength="73" x="760" y="114.0234">Repository</text><path d="M781.5,64.4883 C781.5,54.4883 799.5,54.4883 799.5,54.4883 C799.5,54.4883 817.5,54.4883 817.5,64.4883 L817.5,90.4883 C817.5,100.4883 799.5,100.4883 799.5,100.4883 C799.5,100.4883 781.5,100.4883 781.5,90.4883 L781.5,64.4883 " fill="#FEFECE" filter="url(#fwldmrx3lcrxz)" style="stroke: #000000; stroke-width: 1.5;"/><path d="M781.5,64.4883 C781.5,74.4883 799.5,74.4883 799.5,74.4883 C799.5,74.4883 817.5,74.4883 817.5,64.4883 " fill="none" style="stroke: #000000; stroke-width: 1.5;"/><text fill="#000000" font-family="sans-serif" font-size="14" lengthAdjust="spacingAndGlyphs" textLength="73" x="760" y="456.6172">Repository</text><path d="M781.5,469.5703 C781.5,459.5703 799.5,459.5703 799.5,459.5703 C799.5,459.5703 817.5,459.5703 817.5,469.5703 L817.5,495.5703 C817.5,505.5703 799.5,505.5703 799.5,505.5703 C799.5,505.5703 781.5,505.5703 781.5,495.5703 L781.5,469.5703 " fill="#FEFECE" filter="url(#fwldmrx3lcrxz)" style="stroke: #000000; stroke-width: 1.5;"/><path d="M781.5,469.5703 C781.5,479.5703 799.5,479.5703 799.5,479.5703 C799.5,479.5703 817.5,479.5703 817.5,469.5703 " fill="none" style="stroke: #000000; stroke-width: 1.5;"/><polygon fill="#A80036" points="503.5,144.2871,513.5,148.2871,503.5,152.2871,507.5,148.2871" style="stroke: #A80036; stroke-width: 1.0;"/><line style="stroke: #A80036; stroke-width: 1.0;" x1="37.5" x2="509.5" y1="148.2871" y2="148.2871"/><text fill="#000000" font-family="sans-serif" font-size="13" lengthAdjust="spacingAndGlyphs" textLength="177" x="44.5" y="143.5449">Enroll to a new module (run)</text><polygon fill="#A80036" points="503.5,173.5977,513.5,177.5977,503.5,181.5977,507.5,177.5977" style="stroke: #A80036; stroke-width: 1.0;"/><line style="stroke: #A80036; stroke-width: 1.0;" x1="37.5" x2="509.5" y1="177.5977" y2="177.5977"/><text fill="#000000" font-family="sans-serif" font-size="13" lengthAdjust="spacingAndGlyphs" textLength="159" x="44.5" y="172.8555">Student::getEnrollments()</text><polygon fill="#A80036" points="787.5,202.9082,797.5,206.9082,787.5,210.9082,791.5,206.9082" style="stroke: #A80036; stroke-width: 1.0;"/><line style="stroke: #A80036; stroke-width: 1.0;" x1="515.5" x2="793.5" y1="206.9082" y2="206.9082"/><text fill="#000000" font-family="sans-serif" font-size="13" lengthAdjust="spacingAndGlyphs" textLength="159" x="522.5" y="202.166">Student::getEnrollments()</text><polygon fill="#A80036" points="526.5,232.2188,516.5,236.2188,526.5,240.2188,522.5,236.2188" style="stroke: #A80036; stroke-width: 1.0;"/><line style="stroke: #A80036; stroke-width: 1.0; stroke-dasharray: 2.0,2.0;" x1="520.5" x2="798.5" y1="236.2188" y2="236.2188"/><text fill="#000000" font-family="sans-serif" font-size="13" lengthAdjust="spacingAndGlyphs" textLength="260" x="532.5" y="231.4766">Set of Enrollments for this Student object</text><polygon fill="#A80036" points="48.5,261.5293,38.5,265.5293,48.5,269.5293,44.5,265.5293" style="stroke: #A80036; stroke-width: 1.0;"/><line style="stroke: #A80036; stroke-width: 1.0; stroke-dasharray: 2.0,2.0;" x1="42.5" x2="514.5" y1="265.5293" y2="265.5293"/><text fill="#000000" font-family="sans-serif" font-size="13" lengthAdjust="spacingAndGlyphs" textLength="260" x="54.5" y="260.7871">Set of Enrollments for this Student object</text><polygon fill="#A80036" points="503.5,290.8398,513.5,294.8398,503.5,298.8398,507.5,294.8398" style="stroke: #A80036; stroke-width: 1.0;"/><line style="stroke: #A80036; stroke-width: 1.0; stroke-dasharray: 2.0,2.0;" x1="37.5" x2="509.5" y1="294.8398" y2="294.8398"/><text fill="#000000" font-family="sans-serif" font-size="13" lengthAdjust="spacingAndGlyphs" textLength="141" x="44.5" y="290.0977">Create new Enrollment</text><polygon fill="#A80036" points="48.5,320.1504,38.5,324.1504,48.5,328.1504,44.5,324.1504" style="stroke: #A80036; stroke-width: 1.0;"/><line style="stroke: #A80036; stroke-width: 1.0; stroke-dasharray: 2.0,2.0;" x1="42.5" x2="514.5" y1="324.1504" y2="324.1504"/><text fill="#000000" font-family="sans-serif" font-size="13" lengthAdjust="spacingAndGlyphs" textLength="154" x="54.5" y="319.4082">Empty Enrollment object</text><polygon fill="#A80036" points="503.5,349.4609,513.5,353.4609,503.5,357.4609,507.5,353.4609" style="stroke: #A80036; stroke-width: 1.0;"/><line style="stroke: #A80036; stroke-width: 1.0; stroke-dasharray: 2.0,2.0;" x1="37.5" x2="509.5" y1="353.4609" y2="353.4609"/><text fill="#000000" font-family="sans-serif" font-size="13" lengthAdjust="spacingAndGlyphs" textLength="454" x="44.5" y="348.7188">Enter enrollment data (ModuleRun ID, this.studentID{implicit}, Semester)</text><polygon fill="#A80036" points="787.5,378.7715,797.5,382.7715,787.5,386.7715,791.5,382.7715" style="stroke: #A80036; stroke-width: 1.0;"/><line style="stroke: #A80036; stroke-width: 1.0; stroke-dasharray: 2.0,2.0;" x1="515.5" x2="793.5" y1="382.7715" y2="382.7715"/><text fill="#000000" font-family="sans-serif" font-size="13" lengthAdjust="spacingAndGlyphs" textLength="104" x="522.5" y="378.0293">save(enrollment)</text><polygon fill="#A80036" points="526.5,392.7715,516.5,396.7715,526.5,400.7715,522.5,396.7715" style="stroke: #A80036; stroke-width: 1.0;"/><line style="stroke: #A80036; stroke-width: 1.0; stroke-dasharray: 2.0,2.0;" x1="520.5" x2="798.5" y1="396.7715" y2="396.7715"/><polygon fill="#A80036" points="48.5,422.082,38.5,426.082,48.5,430.082,44.5,426.082" style="stroke: #A80036; stroke-width: 1.0;"/><line style="stroke: #A80036; stroke-width: 1.0; stroke-dasharray: 2.0,2.0;" x1="42.5" x2="514.5" y1="426.082" y2="426.082"/><text fill="#000000" font-family="sans-serif" font-size="13" lengthAdjust="spacingAndGlyphs" textLength="74" x="54.5" y="421.3398">updateList()</text><!--
@startuml

Title Enroll to a module (run)
Actor Student
Database Controller
Database Repository

Student -> Controller: Enroll to a new module (run)

Student -> Controller: Student::getEnrollments()
Controller -> Repository: Student::getEnrollments()
Repository - -> Controller: Set of Enrollments for this Student object
Controller - -> Student: Set of Enrollments for this Student object
Student - -> Controller: Create new Enrollment
Controller - -> Student: Empty Enrollment object
Student - -> Controller: Enter enrollment data (ModuleRun ID, this.studentID{implicit}, Semester)
Controller - -> Repository: save(enrollment)
Repository - -> Controller:
Controller - -> Student: updateList()

@enduml

PlantUML version 1.2018.09(Fri Jul 27 18:58:18 CEST 2018)
(GPL source distribution)
Java Runtime: OpenJDK Runtime Environment
JVM: OpenJDK 64-Bit Server VM
Java Version: 1.8.0_152-release-915-b12
Operating System: Mac OS X
OS Version: 10.14.1
Default Encoding: UTF-8
Language: en
Country: SE
--></g></svg>