<svg version="1.1" xmlns="http://www.w3.org/2000/svg" xmlns:xlink="http://www.w3.org/1999/xlink" width="742.2314453125" height="667"><defs/><g><g transform="translate(-30,-54) scale(1,1)"><rect fill="#C0C0C0" stroke="none" x="239" y="71" width="311" height="647" opacity="0.2"/></g><g transform="translate(-30,-54) scale(1,1)"><rect fill="#ffffff" stroke="none" x="232" y="64" width="311" height="647"/></g><g transform="translate(-30,-54) scale(1,1)"><path fill="none" stroke="#000000" d="M 232 64 L 543 64 L 543 711 L 232 711 L 232 64 Z Z" stroke-miterlimit="10"/></g><g transform="translate(-30,-54) scale(1,1)"><g><path fill="none" stroke="none"/><text fill="#000000" stroke="none" font-family="Arial" font-size="13px" font-style="normal" font-weight="bold" text-decoration="none" x="309.5" y="83.5">Room Reservation System</text></g></g><g transform="translate(-30,-54) scale(1,1)"><path fill="#ffffff" stroke="none" d="M 124.24772922585228 201.68 C 124.24772922585228 196.886167936 128.13357155079774 193 132.927001953125 193 C 137.72043235545226 193 141.60627468039772 196.886167936 141.60627468039772 201.68 C 141.60627468039772 206.47383206400002 137.72043235545226 210.36 132.927001953125 210.36 C 128.13357155079774 210.36 124.24772922585228 206.47383206400002 124.24772922585228 201.68 Z"/></g><g transform="translate(-30,-54) scale(1,1)"><path fill="none" stroke="#000000" d="M 124.24772922585228 201.68 C 124.24772922585228 196.886167936 128.13357155079774 193 132.927001953125 193 C 137.72043235545226 193 141.60627468039772 196.886167936 141.60627468039772 201.68 C 141.60627468039772 206.47383206400002 137.72043235545226 210.36 132.927001953125 210.36 C 128.13357155079774 210.36 124.24772922585228 206.47383206400002 124.24772922585228 201.68 Z" stroke-miterlimit="10"/></g><g transform="translate(-30,-54) scale(1,1)"><path fill="none" stroke="#000000" d="M 132.927001953125 210.36 L 132.927001953125 227.64" stroke-miterlimit="10"/></g><g transform="translate(-30,-54) scale(1,1)"><path fill="none" stroke="#000000" d="M 123.73718377130683 216.84 L 142.11682013494317 216.84" stroke-miterlimit="10"/></g><g transform="translate(-30,-54) scale(1,1)"><path fill="none" stroke="#000000" d="M 132.927001953125 227.64 L 120.16336558948865 245" stroke-miterlimit="10"/></g><g transform="translate(-30,-54) scale(1,1)"><path fill="none" stroke="#000000" d="M 132.927001953125 227.64 L 145.69063831676135 245" stroke-miterlimit="10"/></g><g transform="translate(-30,-54) scale(1,1)"><g><path fill="none" stroke="none"/><text fill="#000000" stroke="none" font-family="Arial" font-size="13px" font-style="normal" font-weight="bold" text-decoration="none" x="104.927001953125" y="265.5">Customer</text></g></g><g transform="translate(-30,-54) scale(1,1)"><path fill="#ffffff" stroke="none" d="M 108.58879367897728 489.68 C 108.58879367897728 484.886167936 112.47463600392274 481 117.26806640625 481 C 122.06149680857726 481 125.94733913352272 484.886167936 125.94733913352272 489.68 C 125.94733913352272 494.473832064 122.06149680857726 498.36 117.26806640625 498.36 C 112.47463600392274 498.36 108.58879367897728 494.473832064 108.58879367897728 489.68 Z"/></g><g transform="translate(-30,-54) scale(1,1)"><path fill="none" stroke="#000000" d="M 108.58879367897728 489.68 C 108.58879367897728 484.886167936 112.47463600392274 481 117.26806640625 481 C 122.06149680857726 481 125.94733913352272 484.886167936 125.94733913352272 489.68 C 125.94733913352272 494.473832064 122.06149680857726 498.36 117.26806640625 498.36 C 112.47463600392274 498.36 108.58879367897728 494.473832064 108.58879367897728 489.68 Z" stroke-miterlimit="10"/></g><g transform="translate(-30,-54) scale(1,1)"><path fill="none" stroke="#000000" d="M 117.26806640625 498.36 L 117.26806640625 515.64" stroke-miterlimit="10"/></g><g transform="translate(-30,-54) scale(1,1)"><path fill="none" stroke="#000000" d="M 108.07824822443183 504.84 L 126.45788458806817 504.84" stroke-miterlimit="10"/></g><g transform="translate(-30,-54) scale(1,1)"><path fill="none" stroke="#000000" d="M 117.26806640625 515.64 L 104.50443004261365 533" stroke-miterlimit="10"/></g><g transform="translate(-30,-54) scale(1,1)"><path fill="none" stroke="#000000" d="M 117.26806640625 515.64 L 130.03170276988635 533" stroke-miterlimit="10"/></g><g transform="translate(-30,-54) scale(1,1)"><g><path fill="none" stroke="none"/><text fill="#000000" stroke="none" font-family="Arial" font-size="13px" font-style="normal" font-weight="bold" text-decoration="none" x="54.26806640625" y="553.5">System Administrator</text></g></g><g transform="translate(-30,-54) scale(1,1)"><path fill="#C0C0C0" stroke="none" d="M 319 184 C 319 174.6111584 346.9822 167 381.5 167 C 416.0178 167 444 174.6111584 444 184 C 444 193.3888416 416.0178 201 381.5 201 C 346.9822 201 319 193.3888416 319 184 Z" opacity="0.2"/></g><g transform="translate(-30,-54) scale(1,1)"><path fill="#ffffff" stroke="none" d="M 312 177 C 312 167.6111584 339.9822 160 374.5 160 C 409.0178 160 437 167.6111584 437 177 C 437 186.3888416 409.0178 194 374.5 194 C 339.9822 194 312 186.3888416 312 177 Z"/></g><g transform="translate(-30,-54) scale(1,1)"><path fill="none" stroke="#000000" d="M 312 177 C 312 167.6111584 339.9822 160 374.5 160 C 409.0178 160 437 167.6111584 437 177 C 437 186.3888416 409.0178 194 374.5 194 C 339.9822 194 312 186.3888416 312 177 Z" stroke-miterlimit="10"/></g><g transform="translate(-30,-54) scale(1,1)"><g><path fill="none" stroke="none"/><text fill="#000000" stroke="none" font-family="Arial" font-size="13px" font-style="normal" font-weight="bold" text-decoration="none" x="340" y="184">Reservation</text></g></g><g transform="translate(-30,-54) scale(1,1)"><path fill="#C0C0C0" stroke="none" d="M 319 248 C 319 238.6111584 347.8776304 231 383.5 231 C 419.1223696 231 448 238.6111584 448 248 C 448 257.3888416 419.1223696 265 383.5 265 C 347.8776304 265 319 257.3888416 319 248 Z" opacity="0.2"/></g><g transform="translate(-30,-54) scale(1,1)"><path fill="#ffffff" stroke="none" d="M 312 241 C 312 231.6111584 340.8776304 224 376.5 224 C 412.1223696 224 441 231.6111584 441 241 C 441 250.3888416 412.1223696 258 376.5 258 C 340.8776304 258 312 250.3888416 312 241 Z"/></g><g transform="translate(-30,-54) scale(1,1)"><path fill="none" stroke="#000000" d="M 312 241 C 312 231.6111584 340.8776304 224 376.5 224 C 412.1223696 224 441 231.6111584 441 241 C 441 250.3888416 412.1223696 258 376.5 258 C 340.8776304 258 312 250.3888416 312 241 Z" stroke-miterlimit="10"/></g><g transform="translate(-30,-54) scale(1,1)"><g><path fill="none" stroke="none"/><text fill="#000000" stroke="none" font-family="Arial" font-size="13px" font-style="normal" font-weight="bold" text-decoration="none" x="341" y="248">Cancellation</text></g></g><g transform="translate(-30,-54) scale(1,1)"><path fill="#C0C0C0" stroke="none" d="M 311 320 C 311 310.6111584 344.57864 303 386 303 C 427.42136 303 461 310.6111584 461 320 C 461 329.3888416 427.42136 337 386 337 C 344.57864 337 311 329.3888416 311 320 Z" opacity="0.2"/></g><g transform="translate(-30,-54) scale(1,1)"><path fill="#ffffff" stroke="none" d="M 304 313 C 304 303.6111584 337.57864 296 379 296 C 420.42136 296 454 303.6111584 454 313 C 454 322.3888416 420.42136 330 379 330 C 337.57864 330 304 322.3888416 304 313 Z"/></g><g transform="translate(-30,-54) scale(1,1)"><path fill="none" stroke="#000000" d="M 304 313 C 304 303.6111584 337.57864 296 379 296 C 420.42136 296 454 303.6111584 454 313 C 454 322.3888416 420.42136 330 379 330 C 337.57864 330 304 322.3888416 304 313 Z" stroke-miterlimit="10"/></g><g transform="translate(-30,-54) scale(1,1)"><g><path fill="none" stroke="none"/><text fill="#000000" stroke="none" font-family="Arial" font-size="13px" font-style="normal" font-weight="bold" text-decoration="none" x="336" y="320">Update Rooms</text></g></g><g transform="translate(-30,-54) scale(1,1)"><path fill="none" stroke="#000000" d="M 171 222 L 311 191" stroke-miterlimit="10"/></g><g transform="translate(-30,-54) scale(1,1)"><path fill="none" stroke="#000000" d="M 171 233 L 311 238" stroke-miterlimit="10"/></g><g transform="translate(-30,-54) scale(1,1)"><path fill="#ffffff" stroke="none" d="M 676.4364499289773 217.68 C 676.4364499289773 212.886167936 680.3222922539227 209 685.11572265625 209 C 689.9091530585773 209 693.7949953835227 212.886167936 693.7949953835227 217.68 C 693.7949953835227 222.47383206400002 689.9091530585773 226.36 685.11572265625 226.36 C 680.3222922539227 226.36 676.4364499289773 222.47383206400002 676.4364499289773 217.68 Z"/></g><g transform="translate(-30,-54) scale(1,1)"><path fill="none" stroke="#000000" d="M 676.4364499289773 217.68 C 676.4364499289773 212.886167936 680.3222922539227 209 685.11572265625 209 C 689.9091530585773 209 693.7949953835227 212.886167936 693.7949953835227 217.68 C 693.7949953835227 222.47383206400002 689.9091530585773 226.36 685.11572265625 226.36 C 680.3222922539227 226.36 676.4364499289773 222.47383206400002 676.4364499289773 217.68 Z" stroke-miterlimit="10"/></g><g transform="translate(-30,-54) scale(1,1)"><path fill="none" stroke="#000000" d="M 685.11572265625 226.36 L 685.11572265625 243.64" stroke-miterlimit="10"/></g><g transform="translate(-30,-54) scale(1,1)"><path fill="none" stroke="#000000" d="M 675.9259044744318 232.84 L 694.3055408380682 232.84" stroke-miterlimit="10"/></g><g transform="translate(-30,-54) scale(1,1)"><path fill="none" stroke="#000000" d="M 685.11572265625 243.64 L 672.3520862926136 261" stroke-miterlimit="10"/></g><g transform="translate(-30,-54) scale(1,1)"><path fill="none" stroke="#000000" d="M 685.11572265625 243.64 L 697.8793590198864 261" stroke-miterlimit="10"/></g><g transform="translate(-30,-54) scale(1,1)"><g><path fill="none" stroke="none"/><text fill="#000000" stroke="none" font-family="Arial" font-size="13px" font-style="normal" font-weight="bold" text-decoration="none" x="646.61572265625" y="281.5">Administrator</text></g></g><g transform="translate(-30,-54) scale(1,1)"><path fill="#C0C0C0" stroke="none" d="M 303 512 C 303 502.6111584 343.0705104 495 392.5 495 C 441.9294896 495 482 502.6111584 482 512 C 482 521.3888416 441.9294896 529 392.5 529 C 343.0705104 529 303 521.3888416 303 512 Z" opacity="0.2"/></g><g transform="translate(-30,-54) scale(1,1)"><path fill="#ffffff" stroke="none" d="M 296 505 C 296 495.6111584 336.0705104 488 385.5 488 C 434.9294896 488 475 495.6111584 475 505 C 475 514.3888416 434.9294896 522 385.5 522 C 336.0705104 522 296 514.3888416 296 505 Z"/></g><g transform="translate(-30,-54) scale(1,1)"><path fill="none" stroke="#000000" d="M 296 505 C 296 495.6111584 336.0705104 488 385.5 488 C 434.9294896 488 475 495.6111584 475 505 C 475 514.3888416 434.9294896 522 385.5 522 C 336.0705104 522 296 514.3888416 296 505 Z" stroke-miterlimit="10"/></g><g transform="translate(-30,-54) scale(1,1)"><g><path fill="none" stroke="none"/><text fill="#000000" stroke="none" font-family="Arial" font-size="13px" font-style="normal" font-weight="bold" text-decoration="none" x="333" y="512">Manage Accounts</text></g></g><g transform="translate(-30,-54) scale(1,1)"><path fill="none" stroke="#000000" d="M 455 297 L 607 264" stroke-miterlimit="10"/></g><g transform="translate(-30,-54) scale(1,1)"><path fill="none" stroke="#000000" d="M 438 191 L 607 229" stroke-miterlimit="10"/></g><g transform="translate(-30,-54) scale(1,1)"><path fill="none" stroke="#000000" d="M 442 242 L 607 245" stroke-miterlimit="10"/></g><g transform="translate(-30,-54) scale(1,1)"><path fill="#C0C0C0" stroke="none" d="M 311 608 C 311 598.6111584 348.6080768 591 395 591 C 441.3919232 591 479 598.6111584 479 608 C 479 617.3888416 441.3919232 625 395 625 C 348.6080768 625 311 617.3888416 311 608 Z" opacity="0.2"/></g><g transform="translate(-30,-54) scale(1,1)"><path fill="#ffffff" stroke="none" d="M 304 601 C 304 591.6111584 341.6080768 584 388 584 C 434.3919232 584 472 591.6111584 472 601 C 472 610.3888416 434.3919232 618 388 618 C 341.6080768 618 304 610.3888416 304 601 Z"/></g><g transform="translate(-30,-54) scale(1,1)"><path fill="none" stroke="#000000" d="M 304 601 C 304 591.6111584 341.6080768 584 388 584 C 434.3919232 584 472 591.6111584 472 601 C 472 610.3888416 434.3919232 618 388 618 C 341.6080768 618 304 610.3888416 304 601 Z" stroke-miterlimit="10"/></g><g transform="translate(-30,-54) scale(1,1)"><g><path fill="none" stroke="none"/><text fill="#000000" stroke="none" font-family="Arial" font-size="13px" font-style="normal" font-weight="bold" text-decoration="none" x="339" y="608">Manage Security</text></g></g><g transform="translate(-30,-54) scale(1,1)"><path fill="none" stroke="#000000" d="M 196 543 L 329 583" stroke-miterlimit="10"/></g><g transform="translate(-30,-54) scale(1,1)"><path fill="none" stroke="#000000" d="M 196 515 L 295 510" stroke-miterlimit="10"/></g><g transform="translate(-30,-54) scale(1,1)"><path fill="#C0C0C0" stroke="none" d="M 311 400 C 311 390.6111584 346.1456432 383 389.5 383 C 432.8543568 383 468 390.6111584 468 400 C 468 409.3888416 432.8543568 417 389.5 417 C 346.1456432 417 311 409.3888416 311 400 Z" opacity="0.2"/></g><g transform="translate(-30,-54) scale(1,1)"><path fill="#ffffff" stroke="none" d="M 304 393 C 304 383.6111584 339.1456432 376 382.5 376 C 425.8543568 376 461 383.6111584 461 393 C 461 402.3888416 425.8543568 410 382.5 410 C 339.1456432 410 304 402.3888416 304 393 Z"/></g><g transform="translate(-30,-54) scale(1,1)"><path fill="none" stroke="#000000" d="M 304 393 C 304 383.6111584 339.1456432 376 382.5 376 C 425.8543568 376 461 383.6111584 461 393 C 461 402.3888416 425.8543568 410 382.5 410 C 339.1456432 410 304 402.3888416 304 393 Z" stroke-miterlimit="10"/></g><g transform="translate(-30,-54) scale(1,1)"><g><path fill="none" stroke="none"/><text fill="#000000" stroke="none" font-family="Arial" font-size="13px" font-style="normal" font-weight="bold" text-decoration="none" x="335.5" y="400">Billing Proccess</text></g></g><g transform="translate(-30,-54) scale(1,1)"><path fill="none" stroke="#000000" d="M 354 375 L 171 256" stroke-miterlimit="10"/></g><g transform="translate(-30,-54) scale(1,1)"><path fill="#ffffff" stroke="none" d="M 683.3593014914773 353.68 C 683.3593014914773 348.886167936 687.2451438164227 345 692.03857421875 345 C 696.8320046210773 345 700.7178469460227 348.886167936 700.7178469460227 353.68 C 700.7178469460227 358.473832064 696.8320046210773 362.36 692.03857421875 362.36 C 687.2451438164227 362.36 683.3593014914773 358.473832064 683.3593014914773 353.68 Z"/></g><g transform="translate(-30,-54) scale(1,1)"><path fill="none" stroke="#000000" d="M 683.3593014914773 353.68 C 683.3593014914773 348.886167936 687.2451438164227 345 692.03857421875 345 C 696.8320046210773 345 700.7178469460227 348.886167936 700.7178469460227 353.68 C 700.7178469460227 358.473832064 696.8320046210773 362.36 692.03857421875 362.36 C 687.2451438164227 362.36 683.3593014914773 358.473832064 683.3593014914773 353.68 Z" stroke-miterlimit="10"/></g><g transform="translate(-30,-54) scale(1,1)"><path fill="none" stroke="#000000" d="M 692.03857421875 362.36 L 692.03857421875 379.64" stroke-miterlimit="10"/></g><g transform="translate(-30,-54) scale(1,1)"><path fill="none" stroke="#000000" d="M 682.8487560369318 368.84 L 701.2283924005682 368.84" stroke-miterlimit="10"/></g><g transform="translate(-30,-54) scale(1,1)"><path fill="none" stroke="#000000" d="M 692.03857421875 379.64 L 679.2749378551136 397" stroke-miterlimit="10"/></g><g transform="translate(-30,-54) scale(1,1)"><path fill="none" stroke="#000000" d="M 692.03857421875 379.64 L 704.8022105823864 397" stroke-miterlimit="10"/></g><g transform="translate(-30,-54) scale(1,1)"><g><path fill="none" stroke="none"/><text fill="#000000" stroke="none" font-family="Arial" font-size="13px" font-style="normal" font-weight="normal" text-decoration="none" x="662.53857421875" y="415.5">«System»</text></g></g><g transform="translate(-30,-54) scale(1,1)"><g><path fill="none" stroke="none"/><text fill="#000000" stroke="none" font-family="Arial" font-size="13px" font-style="normal" font-weight="bold" text-decoration="none" x="635.53857421875" y="430.5">Accounting Service</text></g></g><g transform="translate(-30,-54) scale(1,1)"><path fill="none" stroke="#000000" d="M 462 392 L 623 391" stroke-miterlimit="10"/></g></g></svg>